<mxfile host="65bd71144e" scale="1.2" border="0">
    <diagram id="C5RBs43oDa-KdzZeNtuy" name="Page-1">
        <mxGraphModel dx="774" dy="663" grid="1" gridSize="10" guides="1" tooltips="1" connect="1" arrows="1" fold="1" page="1" pageScale="1" pageWidth="827" pageHeight="1169" background="#FFFFFF" math="0" shadow="0">
            <root>
                <mxCell id="WIyWlLk6GJQsqaUBKTNV-0"/>
                <mxCell id="WIyWlLk6GJQsqaUBKTNV-1" parent="WIyWlLk6GJQsqaUBKTNV-0"/>
                <mxCell id="5" value="" style="group" vertex="1" connectable="0" parent="WIyWlLk6GJQsqaUBKTNV-1">
                    <mxGeometry x="80" y="90" width="680" height="570" as="geometry"/>
                </mxCell>
                <mxCell id="zkfFHV4jXpPFQw0GAbJ--0" value="Timbre" style="swimlane;fontStyle=2;align=center;verticalAlign=top;childLayout=stackLayout;horizontal=1;startSize=26;horizontalStack=0;resizeParent=1;resizeLast=0;collapsible=1;marginBottom=0;rounded=0;shadow=1;strokeWidth=1;" parent="5" vertex="1">
                    <mxGeometry x="408" width="272" height="190" as="geometry">
                        <mxRectangle x="220" y="120" width="160" height="26" as="alternateBounds"/>
                    </mxGeometry>
                </mxCell>
                <mxCell id="zkfFHV4jXpPFQw0GAbJ--1" value="Name" style="text;align=left;verticalAlign=top;spacingLeft=4;spacingRight=4;overflow=hidden;rotatable=0;points=[[0,0.5],[1,0.5]];portConstraint=eastwest;shadow=1;" parent="zkfFHV4jXpPFQw0GAbJ--0" vertex="1">
                    <mxGeometry y="26" width="272" height="49.400000000000006" as="geometry"/>
                </mxCell>
                <mxCell id="zkfFHV4jXpPFQw0GAbJ--4" value="" style="line;html=1;strokeWidth=1;align=left;verticalAlign=middle;spacingTop=-1;spacingLeft=3;spacingRight=3;rotatable=0;labelPosition=right;points=[];portConstraint=eastwest;shadow=1;" parent="zkfFHV4jXpPFQw0GAbJ--0" vertex="1">
                    <mxGeometry y="75.4" width="272" height="15.2" as="geometry"/>
                </mxCell>
                <mxCell id="zkfFHV4jXpPFQw0GAbJ--5" value="+ hacerSonar(): void" style="text;align=left;verticalAlign=top;spacingLeft=4;spacingRight=4;overflow=hidden;rotatable=0;points=[[0,0.5],[1,0.5]];portConstraint=eastwest;shadow=1;" parent="zkfFHV4jXpPFQw0GAbJ--0" vertex="1">
                    <mxGeometry y="90.60000000000001" width="272" height="49.400000000000006" as="geometry"/>
                </mxCell>
                <mxCell id="wlRE3l8ejpTl1nMj_cup-0" value="Luz" style="swimlane;fontStyle=2;align=center;verticalAlign=top;childLayout=stackLayout;horizontal=1;startSize=26;horizontalStack=0;resizeParent=1;resizeLast=0;collapsible=1;marginBottom=0;rounded=0;shadow=1;strokeWidth=1;" parent="5" vertex="1">
                    <mxGeometry x="391" y="323" width="272" height="190" as="geometry">
                        <mxRectangle x="220" y="120" width="160" height="26" as="alternateBounds"/>
                    </mxGeometry>
                </mxCell>
                <mxCell id="wlRE3l8ejpTl1nMj_cup-1" value="Name" style="text;align=left;verticalAlign=top;spacingLeft=4;spacingRight=4;overflow=hidden;rotatable=0;points=[[0,0.5],[1,0.5]];portConstraint=eastwest;shadow=1;" parent="wlRE3l8ejpTl1nMj_cup-0" vertex="1">
                    <mxGeometry y="26" width="272" height="49.400000000000006" as="geometry"/>
                </mxCell>
                <mxCell id="wlRE3l8ejpTl1nMj_cup-2" value="" style="line;html=1;strokeWidth=1;align=left;verticalAlign=middle;spacingTop=-1;spacingLeft=3;spacingRight=3;rotatable=0;labelPosition=right;points=[];portConstraint=eastwest;shadow=1;" parent="wlRE3l8ejpTl1nMj_cup-0" vertex="1">
                    <mxGeometry y="75.4" width="272" height="15.2" as="geometry"/>
                </mxCell>
                <mxCell id="wlRE3l8ejpTl1nMj_cup-3" value="+ encender(): void" style="text;align=left;verticalAlign=top;spacingLeft=4;spacingRight=4;overflow=hidden;rotatable=0;points=[[0,0.5],[1,0.5]];portConstraint=eastwest;shadow=1;" parent="wlRE3l8ejpTl1nMj_cup-0" vertex="1">
                    <mxGeometry y="90.60000000000001" width="272" height="49.400000000000006" as="geometry"/>
                </mxCell>
                <mxCell id="wlRE3l8ejpTl1nMj_cup-9" value="Alarma" style="swimlane;fontStyle=2;align=center;verticalAlign=top;childLayout=stackLayout;horizontal=1;startSize=26;horizontalStack=0;resizeParent=1;resizeLast=0;collapsible=1;marginBottom=0;rounded=0;shadow=1;strokeWidth=1;" parent="5" vertex="1">
                    <mxGeometry width="272" height="228" as="geometry">
                        <mxRectangle x="220" y="120" width="160" height="26" as="alternateBounds"/>
                    </mxGeometry>
                </mxCell>
                <mxCell id="wlRE3l8ejpTl1nMj_cup-10" value="Timbre: Timbre" style="text;align=left;verticalAlign=top;spacingLeft=4;spacingRight=4;overflow=hidden;rotatable=0;points=[[0,0.5],[1,0.5]];portConstraint=eastwest;shadow=1;" parent="wlRE3l8ejpTl1nMj_cup-9" vertex="1">
                    <mxGeometry y="26" width="272" height="49.400000000000006" as="geometry"/>
                </mxCell>
                <mxCell id="wlRE3l8ejpTl1nMj_cup-11" value="" style="line;html=1;strokeWidth=1;align=left;verticalAlign=middle;spacingTop=-1;spacingLeft=3;spacingRight=3;rotatable=0;labelPosition=right;points=[];portConstraint=eastwest;shadow=1;" parent="wlRE3l8ejpTl1nMj_cup-9" vertex="1">
                    <mxGeometry y="75.4" width="272" height="15.2" as="geometry"/>
                </mxCell>
                <mxCell id="wlRE3l8ejpTl1nMj_cup-12" value="+ activar():void&#xa;- comprobar(): boolean&#xa;" style="text;align=left;verticalAlign=top;spacingLeft=4;spacingRight=4;overflow=hidden;rotatable=0;points=[[0,0.5],[1,0.5]];portConstraint=eastwest;shadow=1;" parent="wlRE3l8ejpTl1nMj_cup-9" vertex="1">
                    <mxGeometry y="90.60000000000001" width="272" height="114" as="geometry"/>
                </mxCell>
                <mxCell id="4" style="edgeStyle=none;html=1;endSize=8;endArrow=block;endFill=0;shadow=1;" edge="1" parent="5" source="wlRE3l8ejpTl1nMj_cup-13" target="wlRE3l8ejpTl1nMj_cup-9">
                    <mxGeometry relative="1" as="geometry"/>
                </mxCell>
                <mxCell id="wlRE3l8ejpTl1nMj_cup-13" value="AlarmaLuminosa" style="swimlane;fontStyle=2;align=center;verticalAlign=top;childLayout=stackLayout;horizontal=1;startSize=26;horizontalStack=0;resizeParent=1;resizeLast=0;collapsible=1;marginBottom=0;rounded=0;shadow=1;strokeWidth=1;" parent="5" vertex="1">
                    <mxGeometry y="323" width="272" height="247" as="geometry">
                        <mxRectangle x="220" y="120" width="160" height="26" as="alternateBounds"/>
                    </mxGeometry>
                </mxCell>
                <mxCell id="wlRE3l8ejpTl1nMj_cup-14" value="Timbre: Timbre&#xa;Luz:Luz&#xa;" style="text;align=left;verticalAlign=top;spacingLeft=4;spacingRight=4;overflow=hidden;rotatable=0;points=[[0,0.5],[1,0.5]];portConstraint=eastwest;shadow=1;" parent="wlRE3l8ejpTl1nMj_cup-13" vertex="1">
                    <mxGeometry y="26" width="272" height="83.60000000000001" as="geometry"/>
                </mxCell>
                <mxCell id="wlRE3l8ejpTl1nMj_cup-15" value="" style="line;html=1;strokeWidth=1;align=left;verticalAlign=middle;spacingTop=-1;spacingLeft=3;spacingRight=3;rotatable=0;labelPosition=right;points=[];portConstraint=eastwest;shadow=1;" parent="wlRE3l8ejpTl1nMj_cup-13" vertex="1">
                    <mxGeometry y="109.60000000000001" width="272" height="15.2" as="geometry"/>
                </mxCell>
                <mxCell id="wlRE3l8ejpTl1nMj_cup-16" value="+ activar():void&#xa;- comprobar(): boolean" style="text;align=left;verticalAlign=top;spacingLeft=4;spacingRight=4;overflow=hidden;rotatable=0;points=[[0,0.5],[1,0.5]];portConstraint=eastwest;shadow=1;" parent="wlRE3l8ejpTl1nMj_cup-13" vertex="1">
                    <mxGeometry y="124.80000000000001" width="272" height="98.80000000000001" as="geometry"/>
                </mxCell>
                <mxCell id="1" style="edgeStyle=none;html=1;exitX=1;exitY=0.5;exitDx=0;exitDy=0;entryX=0.004;entryY=0.833;entryDx=0;entryDy=0;entryPerimeter=0;endSize=8;endArrow=open;endFill=0;dashed=1;shadow=1;" edge="1" parent="5" source="wlRE3l8ejpTl1nMj_cup-14" target="wlRE3l8ejpTl1nMj_cup-1">
                    <mxGeometry relative="1" as="geometry"/>
                </mxCell>
                <mxCell id="2" style="edgeStyle=none;html=1;entryX=0;entryY=0.5;entryDx=0;entryDy=0;endSize=8;endArrow=open;endFill=0;dashed=1;shadow=1;" edge="1" parent="5" source="wlRE3l8ejpTl1nMj_cup-10" target="zkfFHV4jXpPFQw0GAbJ--1">
                    <mxGeometry relative="1" as="geometry"/>
                </mxCell>
            </root>
        </mxGraphModel>
    </diagram>
</mxfile>